<svg width="1442" height="707" viewBox="0 0 1442 707" fill="none" xmlns="http://www.w3.org/2000/svg">
<path d="M929.933 706.6C918.632 684.401 922.776 628.693 1029.76 583.457C1163.49 526.911 1263.95 468.481 1268.34 382.407C1272.74 296.332 1377.59 198.32 1406.47 224.079C1429.57 244.687 1438.7 295.075 1440.37 317.693" stroke="#E3E6FF"/>
<path d="M895.588 705.972C883.512 682.301 887.94 622.902 1002.26 574.668C1145.15 514.376 1252.49 452.074 1257.18 360.296C1261.88 268.517 1373.91 164.01 1404.77 191.477C1429.46 213.45 1439.21 267.177 1441 291.294" stroke="#E3E6FF"/>
<path d="M964.075 705.972C953.516 685.282 957.388 633.361 1057.35 591.201C1182.3 538.499 1276.16 484.042 1280.27 403.819C1284.37 323.596 1382.34 232.248 1409.32 256.256C1430.91 275.463 1439.44 322.425 1441 343.505" stroke="#E3E6FF"/>
<path d="M991.471 705.972C981.518 686.485 985.167 637.585 1079.39 597.877C1197.16 548.242 1285.63 496.952 1289.5 421.396C1293.37 345.84 1385.71 259.805 1411.14 282.417C1431.49 300.506 1439.53 344.737 1441 364.591" stroke="#E3E6FF"/>
<path d="M393.027 0.5C401.696 17.5285 398.517 60.2605 316.452 94.9602C213.87 138.335 136.813 183.155 133.442 249.181C130.071 315.207 49.6425 390.389 27.4886 370.63C9.76555 354.822 2.76621 316.171 1.48193 298.821" stroke="#E3E6FF"/>
<path d="M419.372 0.981934C428.635 19.1389 425.239 64.7025 337.55 101.702C227.94 147.95 145.603 195.741 142.001 266.142C138.399 336.543 52.4603 416.707 28.7886 395.638C9.85117 378.783 2.37228 337.57 1 319.071" stroke="#E3E6FF"/>
<path d="M366.837 0.981934C374.937 16.8528 371.967 56.6796 295.29 89.0201C199.443 129.446 127.445 171.219 124.296 232.756C121.146 294.293 45.9984 364.364 25.2991 345.948C8.73972 331.215 2.19996 295.191 1 279.021" stroke="#E3E6FF"/>
<path d="M345.823 0.981934C353.457 15.9295 350.658 53.4395 278.385 83.8988C188.044 121.973 120.182 161.316 117.213 219.273C114.244 277.23 43.4136 343.226 23.9034 325.881C8.29515 312.005 2.13103 278.077 1 262.847" stroke="#E3E6FF"/>
</svg>
